<?xml version="1.0" standalone="no"?>
<!DOCTYPE svg PUBLIC "-//W3C//DTD SVG 20010904//EN"
 "http://www.w3.org/TR/2001/REC-SVG-20010904/DTD/svg10.dtd">
<svg version="1.0" xmlns="http://www.w3.org/2000/svg"
 width="460.000000pt" height="460.000000pt" viewBox="0 0 460.000000 460.000000"
 preserveAspectRatio="xMidYMid meet">

<g transform="translate(0.000000,460.000000) scale(0.100000,-0.100000)"
fill="#000000" stroke="none">
<path d="M0 4462 l0 -137 79 -2 c44 -1 85 -4 92 -8 6 -4 17 -23 25 -41 8 -19
19 -34 24 -34 10 0 14 8 41 79 21 57 74 103 125 111 25 4 47 3 50 -2 3 -4 16
-8 28 -8 29 0 128 -43 142 -61 41 -52 30 -115 -26 -144 -17 -9 -30 -22 -30
-30 0 -17 30 -35 59 -35 11 0 32 -15 47 -35 14 -19 32 -35 39 -35 7 0 18 -7
25 -15 14 -17 105 -21 115 -5 3 6 17 10 29 10 18 0 24 6 24 23 0 35 27 89 63
125 24 24 33 44 35 70 1 20 5 46 10 57 11 29 133 145 158 150 11 2 38 7 58 10
43 7 56 24 50 66 l-4 29 -75 0 c-59 0 -79 -4 -92 -17 -18 -20 -109 -56 -122
-48 -4 3 -6 19 -4 35 l4 30 -485 0 -484 0 0 -138z"/>
<path d="M2132 4573 c2 -18 10 -29 22 -31 15 -3 17 0 11 14 -4 11 -8 25 -8 32
0 6 -7 12 -14 12 -10 0 -13 -9 -11 -27z"/>
<path d="M3706 4586 c8 -20 44 -34 101 -39 76 -6 103 -27 103 -81 0 -38 -4
-46 -41 -75 -55 -45 -101 -57 -141 -37 -56 29 -83 22 -113 -30 -17 -29 -39
-51 -59 -59 -18 -8 -44 -25 -57 -39 -13 -14 -29 -26 -35 -26 -6 0 -17 -7 -25
-16 -10 -12 -10 -17 0 -23 13 -9 17 -92 6 -162 -6 -44 -6 -46 22 -57 15 -6 43
-14 60 -17 18 -4 36 -7 40 -8 4 -1 7 19 8 45 1 57 28 84 95 91 38 4 50 1 81
-24 38 -30 67 -36 97 -19 32 19 107 42 162 50 31 5 72 16 92 25 49 20 91 19
158 -5 64 -23 152 -25 262 -8 l78 12 0 258 0 258 -450 0 c-375 0 -449 -2 -444
-14z"/>
<path d="M3271 4323 c-7 -7 -23 -13 -36 -13 -33 0 -32 -22 3 -42 22 -13 32
-14 40 -6 9 9 12 9 12 0 0 -16 35 -15 49 2 6 7 10 27 9 44 -2 27 -5 30 -34 29
-17 -1 -37 -8 -43 -14z"/>
<path d="M1616 4304 c-20 -19 -20 -43 -1 -68 8 -11 15 -30 15 -42 0 -12 12
-32 26 -43 31 -25 48 -27 40 -6 -3 10 1 15 13 15 10 0 23 11 30 24 12 21 10
28 -10 55 -12 17 -26 31 -31 31 -4 0 -8 7 -8 15 0 14 -29 35 -49 35 -5 0 -17
-7 -25 -16z"/>
<path d="M80 4045 c-14 -8 -37 -19 -52 -25 -25 -9 -28 -14 -28 -58 0 -26 5
-53 12 -60 7 -7 39 -12 74 -12 54 0 65 3 78 22 9 12 16 33 16 46 0 31 -26 79
-49 92 -24 12 -21 13 -51 -5z"/>
<path d="M4562 3870 c-39 -34 -129 -70 -175 -70 -34 0 -77 -23 -77 -41 0 -6
-17 -27 -38 -47 -23 -22 -37 -43 -34 -52 6 -16 62 -72 62 -62 0 4 5 -1 11 -10
14 -24 31 -22 65 7 33 29 73 38 161 39 l63 1 0 133 c0 72 -1 132 -2 132 -2 0
-18 -14 -36 -30z"/>
<path d="M1834 3808 l-19 -23 23 19 c21 18 27 26 19 26 -2 0 -12 -10 -23 -22z"/>
<path d="M2116 3796 c23 -18 14 -29 -39 -46 -37 -12 -89 -59 -114 -103 -19
-34 -15 -38 22 -20 19 9 35 20 35 23 0 13 84 40 115 37 33 -2 58 -27 80 -81 9
-20 19 -36 24 -36 10 0 23 76 17 100 -2 8 -7 30 -11 48 -5 22 -12 31 -21 28
-8 -3 -14 -1 -14 5 0 22 -62 59 -97 59 -14 0 -14 -2 3 -14z"/>
<path d="M2014 3748 l-19 -23 23 19 c21 18 27 26 19 26 -2 0 -12 -10 -23 -22z"/>
<path d="M1714 3668 c-4 -13 -15 -34 -25 -47 -11 -13 -19 -33 -19 -45 0 -16 6
-11 23 19 34 61 48 95 37 95 -5 0 -12 -10 -16 -22z"/>
<path d="M2270 3680 c0 -5 5 -10 11 -10 5 0 7 5 4 10 -3 6 -8 10 -11 10 -2 0
-4 -4 -4 -10z"/>
<path d="M4106 3683 c-3 -4 -6 -14 -6 -24 0 -28 -35 -43 -72 -30 -37 13 -71
14 -64 2 3 -5 -5 -25 -19 -45 -14 -20 -25 -45 -25 -56 0 -10 -9 -21 -19 -25
-33 -10 -52 -87 -65 -268 -3 -38 -12 -66 -26 -84 -12 -16 -18 -34 -14 -45 3
-10 0 -25 -6 -33 -6 -8 -10 -25 -8 -38 1 -13 -5 -35 -14 -50 -19 -28 -37 -96
-38 -137 0 -14 4 -20 8 -14 21 32 120 -28 137 -84 5 -18 13 -32 18 -32 4 0 1
-12 -8 -27 -18 -29 -77 -73 -99 -73 -7 0 -21 -7 -32 -15 -23 -18 -117 -20
-147 -3 -12 7 -68 13 -127 15 -58 1 -116 4 -130 7 -72 16 -118 26 -141 31 -17
5 -39 0 -65 -14 -21 -12 -47 -21 -57 -21 -10 0 -33 -11 -51 -25 -18 -14 -38
-25 -43 -25 -6 0 -13 -6 -16 -13 -5 -13 0 -14 88 -21 28 -2 70 -7 95 -11 25
-4 54 -8 65 -7 108 4 191 0 228 -13 32 -11 101 -16 243 -19 110 -2 210 -6 224
-10 77 -19 372 -29 397 -13 23 14 124 -2 198 -33 11 -5 35 -13 53 -19 l32 -10
0 112 0 112 -138 0 c-108 0 -143 3 -157 15 -9 8 -31 13 -47 11 -16 -1 -50 7
-76 19 -26 13 -58 22 -72 22 -14 0 -28 5 -32 12 -5 7 -20 6 -52 -6 -45 -17
-46 -17 -64 7 -11 13 -23 21 -27 17 -4 -4 -5 6 -1 21 4 18 2 35 -5 44 -8 9 -9
17 -3 21 5 4 10 21 12 37 4 37 33 118 45 126 5 4 7 11 3 17 -8 13 7 23 39 26
13 2 38 15 55 30 27 22 41 26 103 27 98 2 115 0 167 -17 42 -14 48 -14 117 12
49 17 84 24 103 20 l30 -5 0 104 0 104 -32 15 c-32 14 -77 21 -125 17 -15 -1
-23 -7 -23 -20 0 -23 -59 -37 -89 -21 -11 5 -29 10 -40 10 -39 0 -146 -43
-164 -67 -10 -12 -26 -23 -36 -23 -28 0 -61 -30 -61 -54 0 -31 -28 -42 -46
-19 -13 17 -13 27 2 81 4 13 2 22 -4 22 -6 0 -14 21 -17 48 -4 26 -12 61 -18
79 -8 25 -7 44 8 92 10 34 21 61 25 61 5 0 10 16 12 35 2 19 0 35 -4 35 -18 0
-6 28 14 33 27 7 36 1 20 -15 -19 -19 -14 -28 18 -28 22 0 33 6 41 24 6 13 25
28 42 33 17 4 32 13 33 18 4 12 -41 46 -50 38z"/>
<path d="M1846 3647 c-15 -19 -26 -39 -26 -44 0 -6 -7 -13 -15 -17 -8 -3 -15
-10 -15 -17 0 -6 -18 -49 -39 -94 -21 -46 -36 -87 -33 -91 4 -4 2 -4 -4 -1
-15 8 -39 -47 -28 -64 4 -8 3 -10 -4 -5 -7 4 -12 1 -12 -9 0 -20 -66 -121 -89
-136 -12 -8 -9 -9 14 -4 33 7 65 32 65 49 0 6 13 27 28 46 42 53 90 151 103
208 6 29 14 52 18 52 4 0 14 19 20 43 7 23 17 47 21 52 11 13 31 65 25 65 -2
0 -15 -15 -29 -33z"/>
<path d="M2271 3603 c-14 -69 -14 -70 -3 -149 16 -102 54 -236 65 -225 16 16
27 196 16 249 -20 99 -22 117 -11 107 6 -5 15 -26 21 -45 l11 -35 -6 40 c-4
27 -14 47 -32 62 -15 11 -27 27 -27 34 0 7 -5 14 -11 16 -6 2 -16 -22 -23 -54z"/>
<path d="M1693 3562 c-9 -23 -20 -42 -25 -42 -4 0 -8 -21 -8 -47 0 -51 16 -49
22 2 1 17 5 32 8 35 9 8 30 84 25 89 -3 2 -13 -14 -22 -37z"/>
<path d="M4290 3450 c0 -6 7 -10 15 -10 8 0 15 2 15 4 0 2 -7 6 -15 10 -8 3
-15 1 -15 -4z"/>
<path d="M1630 3398 c0 -23 -6 -38 -15 -42 -8 -3 -15 -10 -15 -16 0 -7 6 -8
19 -1 21 12 36 70 21 85 -7 7 -10 -2 -10 -26z"/>
<path d="M1831 3413 c-1 -6 -4 -20 -7 -30 -5 -17 -5 -17 6 0 6 10 9 23 6 30
-3 9 -5 9 -5 0z"/>
<path d="M2113 3403 c-66 -8 -99 -97 -45 -120 103 -44 225 -7 167 50 -8 9 -31
21 -50 27 -42 14 -37 30 8 30 24 0 28 3 17 10 -15 10 -37 10 -97 3z m30 -103
c3 -13 0 -20 -8 -20 -17 0 -28 17 -20 30 10 16 22 12 28 -10z"/>
<path d="M1855 3377 c-13 -20 -54 -131 -55 -149 0 -3 8 -4 18 -1 23 5 48 48
62 99 9 38 10 38 5 4 -3 -19 -7 -48 -10 -65 -4 -23 -3 -25 4 -10 8 19 9 19 12
-2 4 -22 4 -22 38 6 31 26 33 30 24 58 -7 20 -8 35 -1 48 9 15 8 17 -11 12
-11 -3 -21 -1 -21 5 0 6 -7 8 -15 4 -8 -3 -15 -1 -15 4 0 18 -19 10 -35 -13z"/>
<path d="M1796 3364 c-3 -9 -4 -19 -1 -22 3 -3 5 1 5 9 0 11 2 11 10 -1 5 -8
10 -10 10 -5 0 6 -4 16 -9 23 -6 11 -10 10 -15 -4z"/>
<path d="M1571 3342 c-7 -13 -11 -26 -8 -28 8 -8 29 25 25 38 -3 8 -9 4 -17
-10z"/>
<path d="M1772 3301 c-6 -14 -30 -50 -52 -78 -22 -29 -36 -53 -31 -53 10 0 89
99 109 136 8 16 8 21 -2 21 -7 0 -18 -12 -24 -26z"/>
<path d="M1615 3299 c-4 -6 -5 -12 -2 -15 2 -3 7 2 10 11 7 17 1 20 -8 4z"/>
<path d="M1566 3255 c-3 -8 -1 -15 4 -15 6 0 10 7 10 15 0 8 -2 15 -4 15 -2 0
-6 -7 -10 -15z"/>
<path d="M2845 3260 c-11 -5 -46 -9 -77 -9 -33 -1 -76 -9 -103 -21 -29 -12
-64 -19 -93 -17 -36 1 -47 -1 -47 -13 0 -10 12 -16 38 -18 20 -2 37 -8 37 -14
0 -6 -13 -8 -32 -6 l-32 5 24 -19 c20 -16 33 -18 65 -13 50 9 92 7 115 -5 10
-6 30 -10 44 -10 15 0 31 -8 38 -20 8 -12 24 -20 40 -20 21 0 28 -5 28 -20 0
-11 7 -20 15 -20 7 0 18 -8 24 -17 9 -17 13 -17 54 5 28 15 50 35 60 58 9 18
21 34 27 34 5 0 10 8 10 18 0 12 8 17 30 17 17 0 30 -3 30 -8 0 -4 12 -4 26
-1 18 5 34 0 54 -15 16 -11 37 -21 47 -21 27 0 42 -13 46 -38 6 -41 21 -47 83
-32 32 8 68 24 82 37 13 12 28 20 33 17 5 -3 24 -2 43 2 54 10 94 90 67 132
-6 10 -22 12 -64 7 -41 -5 -63 -3 -90 10 -42 19 -78 21 -132 7 -22 -6 -76 -15
-119 -21 -64 -8 -83 -14 -97 -32 -11 -15 -21 -19 -30 -13 -8 5 -25 10 -38 12
-14 2 -46 19 -72 38 -48 35 -91 43 -134 24z"/>
<path d="M1986 3232 c-24 -5 -76 -52 -76 -68 0 -16 45 -2 72 23 18 16 68 11
68 -7 0 -6 5 -10 10 -10 6 0 4 12 -4 29 -16 29 -37 40 -70 33z"/>
<path d="M1537 3213 c-4 -3 -7 -11 -7 -17 0 -6 5 -5 12 2 6 6 9 14 7 17 -3 3
-9 2 -12 -2z"/>
<path d="M1758 3200 c-7 -11 -32 -32 -55 -47 -24 -15 -43 -35 -43 -44 0 -10
-4 -21 -10 -24 -12 -8 -13 -25 -2 -25 14 0 82 70 93 94 5 11 16 31 25 44 9 12
14 22 10 22 -3 0 -11 -9 -18 -20z m-28 -44 c0 -2 -8 -10 -17 -17 -16 -13 -17
-12 -4 4 13 16 21 21 21 13z"/>
<path d="M0 3011 l0 -200 38 -3 c41 -3 92 9 92 23 0 5 5 9 10 9 6 0 10 -7 10
-15 0 -11 11 -15 40 -15 23 0 54 -7 70 -15 20 -11 54 -15 107 -13 52 1 93 -4
123 -15 25 -9 61 -18 80 -21 19 -3 76 -13 125 -21 111 -20 279 -25 295 -9 14
14 -6 38 -61 71 -59 37 -334 81 -514 83 -49 0 -94 4 -100 8 -30 23 -65 31 -77
19 -20 -18 -68 -38 -79 -32 -5 4 -9 19 -9 35 0 36 29 54 74 47 22 -3 40 1 57
14 13 10 30 19 36 19 7 0 20 12 30 28 10 15 24 31 31 35 10 7 10 12 2 22 -7 8
-9 18 -6 24 4 5 -3 12 -14 16 -11 3 -23 17 -26 31 -5 19 -12 24 -40 24 -19 0
-34 -4 -34 -9 0 -5 -30 -1 -67 10 -38 11 -83 23 -100 26 -18 3 -33 10 -33 14
0 5 -13 9 -30 9 l-30 0 0 -199z"/>
<path d="M2372 3165 c-7 -14 -12 -40 -12 -56 0 -17 -13 -60 -30 -96 -36 -76
-36 -82 -10 -58 34 31 61 104 63 172 1 35 2 63 1 63 0 0 -6 -11 -12 -25z"/>
<path d="M1726 3096 c-13 -20 -13 -24 -2 -20 8 3 17 13 20 21 10 26 0 25 -18
-1z"/>
<path d="M1625 3100 c-3 -5 -2 -10 4 -10 5 0 13 5 16 10 3 6 2 10 -4 10 -5 0
-13 -4 -16 -10z"/>
<path d="M1531 3050 c-13 -11 -19 -20 -14 -20 6 0 18 9 28 20 23 25 17 25 -14
0z"/>
<path d="M2050 3055 c-12 -15 -11 -16 16 -13 16 1 28 8 27 13 -3 17 -29 17
-43 0z"/>
<path d="M1915 3050 c-8 -13 35 -13 55 0 11 7 7 10 -17 10 -17 0 -35 -4 -38
-10z"/>
<path d="M2010 3050 c0 -5 5 -10 10 -10 6 0 10 5 10 10 0 6 -4 10 -10 10 -5 0
-10 -4 -10 -10z"/>
<path d="M2000 3015 c0 -8 5 -15 10 -15 6 0 10 7 10 15 0 8 -4 15 -10 15 -5 0
-10 -7 -10 -15z"/>
<path d="M1465 2990 c-16 -17 -16 -20 -2 -20 25 0 67 19 67 30 0 18 -46 11
-65 -10z"/>
<path d="M2367 2983 c-5 -7 -6 -17 -3 -21 3 -5 -19 -20 -49 -35 -41 -20 -56
-33 -61 -54 -12 -48 -66 -136 -111 -182 -41 -41 -47 -44 -103 -45 -61 -2 -97
-16 -44 -17 28 0 28 -1 9 -14 -11 -8 -29 -21 -40 -30 -18 -15 -18 -16 -1 -11
18 6 18 5 2 -19 l-16 -24 33 19 33 20 33 -29 c27 -25 31 -32 22 -49 -9 -16 -7
-21 10 -25 17 -5 20 -11 15 -31 -8 -32 11 -44 23 -14 5 13 15 29 23 35 16 14
84 21 94 10 11 -10 -26 -47 -69 -68 -21 -11 -45 -26 -55 -34 -74 -61 -148
-108 -189 -120 -61 -19 -82 -20 -65 -3 15 15 16 32 2 23 -6 -4 -10 6 -10 22 0
16 -11 49 -24 73 -14 25 -32 60 -40 78 -11 21 -23 32 -37 32 -20 0 -21 -4 -15
-72 4 -40 10 -96 15 -125 l7 -52 -30 -7 c-54 -12 -94 -11 -89 2 2 7 -8 19 -24
26 -15 8 -27 19 -26 25 1 6 4 22 7 37 3 14 14 38 25 52 22 28 29 101 12 120
-5 5 -16 32 -25 61 -12 37 -21 50 -32 46 -8 -3 -14 -10 -14 -15 0 -17 -73 -88
-83 -81 -6 3 -7 2 -4 -3 3 -6 -29 -49 -71 -96 -42 -48 -94 -107 -116 -133 -21
-25 -41 -44 -43 -41 -5 4 48 72 102 131 69 76 71 78 50 67 -11 -6 -51 -42 -89
-81 -38 -38 -74 -67 -79 -64 -5 3 6 20 23 38 18 18 29 38 26 44 -4 6 -3 11 1
11 13 0 103 89 103 102 0 5 -15 -1 -32 -14 -26 -20 -37 -23 -50 -15 -13 9 -25
4 -57 -19 -23 -16 -57 -38 -76 -50 -19 -11 -69 -56 -110 -99 -41 -43 -75 -74
-75 -68 0 5 11 20 25 33 17 16 23 30 19 42 -3 11 0 27 7 36 7 9 -1 4 -19 -13
-17 -16 -55 -69 -85 -117 -54 -86 -55 -88 -56 -169 l-2 -82 55 6 54 5 4 -66
c7 -106 27 -259 48 -357 11 -49 21 -101 23 -115 3 -14 5 -2 6 25 0 28 -4 66
-10 85 -20 65 -60 454 -46 440 5 -5 10 -43 37 -290 5 -52 14 -115 20 -140 5
-25 11 -76 14 -113 3 -69 15 -104 17 -51 0 16 3 24 5 19 2 -6 0 -40 -6 -75 -5
-36 -12 -90 -15 -120 -14 -156 -74 -543 -99 -640 -8 -30 -17 -88 -21 -129 -4
-41 -13 -88 -20 -105 -7 -17 -18 -69 -25 -116 -6 -47 -16 -104 -21 -127 -5
-23 -9 -47 -9 -52 0 -8 230 -11 753 -11 l752 0 13 41 c7 23 19 87 27 143 13
93 53 303 73 386 5 20 4 92 -1 168 -8 106 -7 152 5 235 9 58 17 192 19 312 4
277 4 309 -5 380 -11 83 -12 146 -3 152 4 2 7 1 7 -4 0 -9 61 -46 66 -40 15
15 98 211 110 260 19 76 47 155 79 222 37 76 86 194 90 216 5 24 0 24 -35 -1
-31 -22 -72 -15 -83 14 -4 9 -13 16 -22 16 -33 0 -12 30 39 55 67 33 109 28
131 -15 11 -22 12 -29 2 -33 -6 -2 -9 -8 -4 -13 4 -4 15 -1 23 8 14 14 14 19
1 44 -41 80 -124 106 -186 60 -36 -27 -55 -26 -46 4 5 15 -3 18 -57 24 -78 9
-135 26 -118 36 8 5 6 9 -6 14 -11 4 -20 2 -22 -3 -5 -16 -32 -13 -32 3 0 7
-7 20 -16 27 -14 12 -20 9 -41 -16 -89 -105 -90 -106 -155 -115 -60 -9 -113 2
-109 23 0 4 1 21 1 38 0 24 4 30 16 25 37 -14 127 47 151 102 7 18 17 31 22
28 13 -9 31 41 33 92 1 46 2 46 7 -13 l7 -60 8 45 c9 55 4 140 -7 123z m-792
-529 c-34 -50 -32 -66 3 -21 15 20 30 36 34 37 3 0 -5 -28 -20 -62 -15 -37
-27 -85 -28 -116 -1 -33 -8 -60 -19 -72 -9 -10 -17 -24 -19 -32 -1 -7 -6 -19
-10 -27 -6 -9 -5 -12 1 -8 15 9 23 -16 23 -66 0 -31 -3 -38 -10 -27 -5 8 -10
10 -10 4 0 -5 5 -15 11 -21 8 -8 7 -14 -4 -24 -8 -7 -12 -23 -10 -34 4 -19 4
-19 -7 -2 -8 13 -9 22 -1 31 9 10 8 15 -4 20 -12 4 -14 10 -7 22 5 10 6 32 1
53 -5 20 -9 59 -9 86 -1 62 -10 47 -39 -65 -13 -47 -42 -148 -66 -225 -44
-141 -105 -356 -105 -369 0 -4 7 0 16 9 9 9 24 13 34 10 36 -11 88 -16 248
-22 152 -5 164 -4 177 13 12 16 14 17 15 3 0 -23 86 -31 285 -28 l157 3 -5 60
c-3 34 -13 129 -22 211 -14 126 -15 171 -5 280 10 118 21 201 36 278 8 38 77
109 100 100 15 -5 16 -17 11 -92 -4 -47 -11 -126 -17 -176 -10 -96 -1 -278 25
-455 7 -52 16 -129 20 -170 4 -41 16 -108 27 -148 22 -82 19 -114 -8 -87 -10
10 -13 20 -7 28 12 16 11 37 -2 37 -5 1 -11 -8 -13 -20 -2 -11 -10 -20 -18
-20 -12 0 -18 23 -17 68 1 6 -5 12 -13 12 -8 0 -14 -4 -14 -10 0 -5 -4 -10
-10 -10 -5 0 -10 9 -10 20 0 25 -30 27 -31 3 0 -15 -2 -15 -9 2 -7 16 -9 17
-9 3 -1 -13 -14 -18 -53 -22 -77 -8 -220 -16 -320 -17 -74 -1 -88 -4 -88 -18
-1 -14 -2 -14 -14 1 -14 19 -60 14 -50 -6 3 -6 -1 -4 -8 6 -17 20 -119 29
-126 10 -2 -7 -8 -12 -13 -12 -4 0 -6 7 -3 15 4 8 2 15 -4 15 -6 0 -12 -5 -14
-10 -2 -6 -18 -11 -36 -13 -17 -1 -32 -6 -32 -11 0 -5 -6 -3 -14 3 -8 6 -29 9
-47 7 -123 -19 -117 -19 -124 4 -4 12 -5 48 -1 79 3 37 2 48 -3 31 -5 -14 -9
-67 -10 -119 -2 -176 -15 -82 -16 122 -1 111 -6 239 -10 284 l-8 82 39 44 c22
24 57 80 78 123 21 43 45 86 51 94 7 8 20 36 29 63 19 58 65 147 105 207 17
25 31 49 31 54 0 7 28 34 37 36 1 0 -9 -16 -22 -36z m-165 -144 c0 -5 -5 -10
-11 -10 -5 0 -7 5 -4 10 3 6 8 10 11 10 2 0 4 -4 4 -10z m-17 -37 c-4 -10 -20
-28 -36 -42 -19 -16 -27 -31 -24 -43 3 -10 -5 -44 -17 -76 -24 -60 -85 -182
-86 -170 0 3 20 59 45 124 25 64 44 123 41 129 -6 16 21 55 38 55 8 0 16 9 19
20 3 11 10 20 16 20 6 0 7 -8 4 -17z m427 -28 c0 -2 -10 -9 -22 -15 -22 -11
-22 -10 -4 4 21 17 26 19 26 11z m-530 -39 c0 -2 -8 -10 -17 -17 -16 -13 -17
-12 -4 4 13 16 21 21 21 13z m293 -17 c4 -3 1 -11 -7 -18 -11 -9 -16 -9 -22 0
-5 8 -3 9 6 4 9 -6 10 -2 5 16 -4 14 -4 20 1 14 5 -5 13 -12 17 -16z m8 -42
c-10 -9 -11 -8 -5 6 3 10 9 15 12 12 3 -3 0 -11 -7 -18z m-51 -187 c0 -5 -5
-10 -11 -10 -5 0 -7 5 -4 10 3 6 8 10 11 10 2 0 4 -4 4 -10z m-17 -83 c-9 -14
-22 23 -15 42 4 10 8 8 14 -8 4 -13 5 -28 1 -34z m117 3 c0 -5 -5 -10 -11 -10
-5 0 -7 5 -4 10 3 6 8 10 11 10 2 0 4 -4 4 -10z m-40 -40 c0 -5 -5 -10 -11
-10 -5 0 -7 5 -4 10 3 6 8 10 11 10 2 0 4 -4 4 -10z m-38 -22 c-7 -7 -12 -8
-12 -2 0 6 3 14 7 17 3 4 9 5 12 2 2 -3 -1 -11 -7 -17z m-102 2 c0 -5 -4 -10
-10 -10 -5 0 -10 5 -10 10 0 6 5 10 10 10 6 0 10 -4 10 -10z m115 -32 c-4 -40
-6 -43 -15 -23 l-9 20 -1 -20 c-1 -19 -1 -19 -11 -2 -6 9 -14 15 -20 12 -5 -4
-9 -2 -9 4 0 16 18 22 23 9 3 -10 9 -8 23 5 23 21 22 21 19 -5z m-395 -18 c0
-5 -2 -10 -4 -10 -3 0 -8 5 -11 10 -3 6 -1 10 4 10 6 0 11 -4 11 -10z m468
-10 c-14 -22 -24 -19 -15 5 4 8 11 15 17 15 6 0 6 -7 -2 -20z m-148 6 c0 -11
-19 -15 -25 -6 -3 5 1 10 9 10 9 0 16 -2 16 -4z m193 -21 c-7 -21 -13 -19 -13
6 0 11 4 18 10 14 5 -3 7 -12 3 -20z m57 21 c0 -3 -4 -8 -10 -11 -5 -3 -10 -1
-10 4 0 6 5 11 10 11 6 0 10 -2 10 -4z m-602 -76 c-7 -10 -14 -17 -17 -15 -4
4 18 35 25 35 2 0 -1 -9 -8 -20z m342 -40 c0 -5 -2 -10 -4 -10 -3 0 -8 5 -11
10 -3 6 -1 10 4 10 6 0 11 -4 11 -10z m36 1 c-4 -5 -1 -12 4 -14 6 -3 5 -4 -2
-3 -15 3 -23 26 -8 26 6 0 9 -4 6 -9z m314 -5 c0 -2 -7 -7 -16 -10 -8 -3 -12
-2 -9 4 6 10 25 14 25 6z m-710 -26 c0 -5 -4 -10 -10 -10 -5 0 -10 5 -10 10 0
6 5 10 10 10 6 0 10 -4 10 -10z m387 -32 c-3 -8 -6 -5 -6 6 -1 11 2 17 5 13 3
-3 4 -12 1 -19z m83 3 c0 -5 -7 -12 -16 -15 -14 -5 -15 -4 -4 9 14 17 20 19
20 6z m230 -21 c0 -5 -5 -10 -11 -10 -5 0 -7 5 -4 10 3 6 8 10 11 10 2 0 4 -4
4 -10z m-723 -72 c-3 -8 -6 -5 -6 6 -1 11 2 17 5 13 3 -3 4 -12 1 -19z m160
-260 c-3 -7 -5 -2 -5 12 0 14 2 19 5 13 2 -7 2 -19 0 -25z m128 19 c38 2 62
-2 67 -10 6 -9 10 -9 16 0 11 18 265 9 382 -13 34 -7 34 -7 10 -15 -14 -4 66
-7 180 -7 196 2 205 1 206 -18 1 -10 5 -27 9 -37 4 -10 5 -20 2 -24 -3 -3 -55
-12 -114 -20 -107 -15 -429 -12 -722 6 l-104 6 -23 60 c-31 80 -30 87 4 78 15
-5 54 -7 87 -6z m939 -279 c5 -44 -11 -22 -18 24 -4 24 -9 54 -11 68 -3 14 2
5 10 -20 9 -25 17 -57 19 -72z"/>
<path d="M1536 2373 c-6 -14 -5 -15 5 -6 7 7 10 15 7 18 -3 3 -9 -2 -12 -12z"/>
<path d="M1523 2233 c0 -15 19 -12 24 3 2 6 -3 11 -10 11 -8 0 -14 -6 -14 -14z"/>
<path d="M1505 2950 c-11 -5 -32 -9 -47 -9 -15 -1 -33 -8 -41 -16 -8 -8 -17
-12 -20 -9 -15 15 17 -85 43 -134 33 -62 32 -32 -2 46 -23 54 -22 56 2 35 11
-10 20 -21 20 -25 0 -4 28 -35 62 -68 50 -48 69 -60 94 -60 18 0 34 6 37 13 3
9 8 9 21 -2 9 -8 19 -12 21 -9 3 3 -21 34 -53 69 -67 73 -77 89 -86 142 -7 38
-15 42 -51 27z"/>
<path d="M1980 2941 c-74 -6 -160 -39 -160 -61 0 -22 75 -43 145 -41 76 2 139
17 130 32 -4 5 5 9 18 9 14 0 27 7 30 15 8 18 -39 56 -67 53 -11 -1 -55 -4
-96 -7z m60 -28 c0 -5 -29 -8 -65 -9 -36 0 -65 3 -65 8 0 4 29 8 65 8 36 0 65
-3 65 -7z"/>
<path d="M1949 2811 c8 -5 11 -16 7 -26 -6 -16 -1 -17 44 -13 57 6 65 10 57
33 -5 11 -21 15 -64 15 -38 0 -53 -3 -44 -9z"/>
<path d="M1488 2744 c10 -20 82 -81 82 -70 0 6 -37 44 -69 71 l-24 20 11 -21z"/>
<path d="M2280 2685 c-19 -19 -29 -35 -24 -35 6 0 25 16 44 35 19 19 29 35 24
35 -6 0 -25 -16 -44 -35z"/>
<path d="M2299 2663 c-13 -16 -12 -17 4 -4 16 13 21 21 13 21 -2 0 -10 -8 -17
-17z"/>
<path d="M3024 2335 c-10 -8 -14 -15 -8 -15 6 0 17 7 24 15 16 19 9 19 -16 0z"/>
<path d="M831 2326 c-14 -17 -7 -36 15 -36 15 0 18 18 5 38 -6 10 -10 10 -20
-2z"/>
<path d="M147 2315 c-32 -7 -66 -20 -75 -28 -9 -9 -29 -20 -45 -26 l-27 -11 0
-150 0 -150 26 -6 c19 -5 24 -12 21 -25 -7 -27 9 -23 30 6 10 14 26 35 36 47
17 21 17 22 -4 34 -28 15 -34 45 -9 51 11 3 16 11 13 22 -3 13 3 16 36 16 37
0 42 -3 56 -35 18 -43 49 -80 67 -80 7 0 23 -7 36 -15 16 -12 27 -13 41 -5 11
5 29 10 40 10 10 0 21 4 23 9 2 5 32 15 68 21 95 18 93 17 73 38 -12 12 -35
19 -68 21 -54 2 -75 14 -75 42 0 10 -5 21 -10 24 -13 8 -40 72 -40 94 0 21
-78 101 -99 101 -9 0 -25 2 -36 4 -11 2 -46 -2 -78 -9z"/>
<path d="M799 2197 c-7 -15 -7 -31 0 -49 8 -21 16 -27 41 -26 41 1 60 36 40
73 -18 34 -66 35 -81 2z"/>
<path d="M2851 2161 c-17 -21 -31 -42 -31 -47 0 -4 -25 -40 -55 -80 -30 -40
-55 -78 -55 -83 0 -5 -11 -22 -24 -38 -30 -36 -40 -82 -25 -119 6 -16 13 -49
15 -74 3 -25 9 -56 14 -70 5 -14 8 -38 8 -55 -1 -44 18 -141 42 -215 30 -90
66 -218 75 -260 4 -19 29 -77 56 -128 35 -68 52 -114 60 -164 16 -101 114
-336 132 -318 4 3 13 30 21 60 35 130 52 179 60 180 9 1 49 -111 41 -118 -2
-2 -12 1 -23 7 -31 17 -36 13 -18 -14 9 -14 12 -25 7 -25 -5 0 -12 7 -15 16
-3 8 -11 12 -17 8 -25 -15 10 -159 93 -373 22 -57 44 -118 49 -135 4 -17 13
-50 19 -73 l11 -43 109 0 110 0 -9 24 c-9 23 -8 23 63 29 95 8 109 14 95 38
-10 20 -78 59 -104 59 -8 0 -15 5 -15 10 0 6 7 10 15 10 8 0 15 4 15 8 0 18
-27 33 -82 44 -61 13 -96 44 -84 74 4 9 -8 28 -31 49 -37 34 -40 65 -6 65 22
1 53 23 53 38 0 14 -35 34 -43 25 -11 -11 -57 27 -57 47 0 11 3 20 8 20 4 0
41 3 82 6 41 3 94 7 117 8 37 1 73 15 47 17 -15 1 -46 6 -109 17 -33 5 -82 6
-109 2 -47 -7 -50 -6 -87 30 -28 27 -44 55 -59 106 -12 38 -26 79 -31 92 -14
35 -11 79 6 96 14 14 12 19 -21 53 -20 21 -44 57 -54 79 -10 23 -23 45 -30 49
-12 8 -32 51 -35 77 -1 10 -8 26 -16 35 -8 10 -21 30 -29 46 -7 15 -19 27 -26
27 -12 0 -24 24 -30 58 -1 8 -14 30 -27 50 -74 109 -162 423 -136 488 6 16 12
53 14 82 2 29 8 58 13 65 6 7 12 26 14 42 2 20 8 29 17 27 8 -2 26 -1 39 3 19
5 23 10 17 28 -4 12 -6 34 -6 50 1 15 -1 27 -3 27 -2 0 -18 -18 -35 -39z"/>
<path d="M2855 2020 c27 -12 35 -12 35 0 0 6 -12 10 -27 9 -25 0 -26 -1 -8 -9z"/>
<path d="M4560 1900 c-11 -11 -20 -24 -20 -29 0 -17 -71 -52 -92 -45 -14 4
-25 -1 -36 -17 -29 -41 -32 -76 -8 -103 18 -21 33 -26 109 -32 l87 -7 0 127
c0 77 -4 126 -10 126 -5 0 -19 -9 -30 -20z"/>
<path d="M7 1894 c-4 -4 -7 -33 -7 -65 0 -56 1 -58 23 -50 29 11 35 67 9 99
-10 13 -21 20 -25 16z"/>
<path d="M4210 1880 c0 -10 41 -30 61 -30 5 0 9 9 9 20 0 16 -7 20 -35 20 -19
0 -35 -5 -35 -10z"/>
<path d="M545 1850 c-3 -5 1 -10 9 -10 9 0 16 5 16 10 0 6 -4 10 -9 10 -6 0
-13 -4 -16 -10z"/>
<path d="M2866 1831 c-4 -5 0 -15 8 -23 39 -35 157 -142 202 -182 28 -25 56
-46 62 -46 6 0 15 -6 19 -13 12 -21 43 -29 43 -12 0 9 -6 12 -15 9 -9 -4 -15
0 -15 10 0 17 -59 86 -74 86 -5 0 -35 24 -65 54 -126 121 -151 140 -165 117z"/>
<path d="M2590 1434 c0 -87 -7 -244 -15 -349 -8 -104 -15 -228 -15 -275 0
-130 -27 -390 -49 -477 -31 -125 -35 -159 -17 -166 8 -3 17 -1 20 6 2 7 5 -5
5 -25 1 -34 -2 -38 -24 -38 -14 0 -25 -6 -26 -12 -1 -22 -7 -52 -14 -75 -7
-20 -4 -23 21 -22 16 0 23 3 16 6 -22 9 -3 20 25 15 25 -5 25 -6 8 -13 -12 -5
13 -8 63 -8 l82 -1 2 28 c1 15 2 41 2 58 1 17 6 37 13 45 6 8 14 39 17 69 3
30 9 78 13 105 18 137 -4 365 -67 685 -17 88 -26 171 -41 410 -6 102 -13 187
-15 189 -2 2 -4 -67 -4 -155z m-95 -1384 c3 -5 1 -10 -4 -10 -6 0 -11 5 -11
10 0 6 2 10 4 10 3 0 8 -4 11 -10z"/>
<path d="M4444 1536 c-8 -20 -36 -29 -44 -15 -4 6 -21 12 -39 13 -24 2 -31 -2
-31 -16 0 -11 7 -18 20 -18 16 0 20 -7 20 -33 l0 -33 -100 1 c-55 1 -95 -2
-89 -6 8 -5 8 -8 0 -13 -6 -4 -11 -16 -11 -26 0 -34 -96 -92 -112 -68 -5 9 -8
6 -8 -9 0 -12 -4 -24 -9 -27 -11 -7 -2 -46 11 -46 5 0 6 -4 3 -10 -3 -6 5 -10
18 -10 14 0 28 7 32 18 6 16 7 16 16 -1 6 -9 15 -15 20 -11 6 3 19 -2 30 -12
10 -9 22 -14 26 -11 3 4 1 7 -5 7 -22 0 -12 30 11 34 90 19 95 18 102 -13 3
-16 12 -35 20 -41 7 -6 11 -20 8 -30 -8 -28 10 -25 47 10 42 39 75 48 89 23 6
-10 11 -12 11 -5 0 6 9 12 20 12 21 0 40 -27 40 -59 0 -12 7 -21 15 -21 8 0
15 -4 15 -10 0 -5 -13 -10 -30 -10 -16 0 -30 -5 -30 -10 0 -12 9 -16 58 -24
l32 -5 0 204 c0 211 -6 253 -40 262 -11 3 -20 9 -20 14 0 16 -90 11 -96 -5z"/>
<path d="M3695 1525 c-22 -8 -54 -15 -72 -15 -25 0 -31 -4 -27 -15 4 -8 12
-15 20 -15 8 0 14 -7 14 -16 0 -9 6 -14 13 -11 6 2 11 11 9 19 -1 10 7 17 23
20 22 5 24 2 19 -18 -5 -21 -2 -24 19 -24 14 0 29 -5 32 -10 4 -6 28 -11 53
-10 26 0 62 -2 80 -6 31 -6 32 -5 32 25 0 18 5 31 13 31 19 1 -25 30 -45 30
-10 0 -21 7 -24 15 -8 20 -104 20 -159 0z m53 -39 c3 -12 -1 -17 -10 -14 -7 3
-15 13 -16 22 -3 12 1 17 10 14 7 -3 15 -13 16 -22z"/>
<path d="M3195 1520 c3 -5 16 -10 28 -10 18 0 19 2 7 10 -20 13 -43 13 -35 0z"/>
<path d="M3968 1455 c5 -30 18 -33 25 -6 5 22 0 31 -18 31 -8 0 -10 -10 -7
-25z"/>
<path d="M395 1440 c-3 -5 1 -10 9 -10 9 0 16 5 16 10 0 6 -4 10 -9 10 -6 0
-13 -4 -16 -10z"/>
<path d="M3527 1419 c4 -13 8 -18 11 -10 2 7 -1 18 -6 23 -8 8 -9 4 -5 -13z"/>
<path d="M3940 1411 c0 -6 5 -13 10 -16 6 -3 10 1 10 9 0 9 -4 16 -10 16 -5 0
-10 -4 -10 -9z"/>
<path d="M3629 1278 c-6 -13 -8 -20 -4 -16 4 4 14 0 21 -10 13 -16 13 -16 14
1 0 9 -5 17 -11 17 -6 0 -9 7 -5 15 8 23 -2 18 -15 -7z"/>
<path d="M8 1243 c7 -3 16 -2 19 1 4 3 -2 6 -13 5 -11 0 -14 -3 -6 -6z"/>
<path d="M3621 1218 c5 -18 9 -51 9 -74 0 -34 7 -48 41 -85 22 -24 40 -39 38
-34 -1 6 1 18 6 28 4 10 1 31 -9 51 -9 19 -14 41 -10 49 5 14 -61 97 -77 97
-4 0 -3 -15 2 -32z"/>
<path d="M158 1213 c-22 -6 -12 -33 13 -33 23 0 25 -17 4 -40 -9 -10 -13 -24
-10 -31 5 -14 91 -40 100 -31 2 3 -3 18 -11 33 -10 20 -12 35 -5 46 6 11 5 20
-3 27 -10 11 -64 37 -69 35 -1 -1 -10 -3 -19 -6z"/>
<path d="M4108 1107 c-31 -12 -49 -42 -20 -33 9 3 30 8 45 12 15 3 26 11 24
17 -5 15 -18 16 -49 4z"/>
<path d="M3965 1090 c-4 -6 5 -10 19 -10 14 0 26 5 26 10 0 6 -9 10 -19 10
-11 0 -23 -4 -26 -10z"/>
<path d="M4555 1030 c3 -5 11 -10 16 -10 6 0 7 5 4 10 -3 6 -11 10 -16 10 -6
0 -7 -4 -4 -10z"/>
<path d="M4584 995 c-3 -8 -24 -20 -45 -26 -34 -11 -56 -39 -29 -39 23 0 7
-21 -20 -26 -33 -7 -38 -18 -14 -32 13 -7 14 -13 5 -31 -15 -28 -35 -27 -55 4
-9 14 -14 25 -10 25 4 0 1 6 -5 14 -9 10 -8 16 4 26 15 13 20 46 9 74 -8 20
-60 21 -68 1 -3 -8 -15 -15 -26 -15 -14 0 -20 -7 -20 -22 0 -35 -11 -44 -58
-52 -37 -5 -46 -3 -61 15 l-18 22 -56 -26 c-31 -15 -62 -27 -71 -27 -8 0 -16
-5 -18 -12 -3 -8 -21 -11 -50 -9 -39 2 -46 -1 -51 -18 -3 -13 -13 -21 -26 -21
-12 0 -21 -4 -21 -10 0 -5 -7 -7 -15 -4 -8 4 -15 2 -15 -4 0 -5 -11 -13 -25
-16 -29 -7 -24 -26 6 -26 11 0 18 -3 15 -8 -2 -4 13 -6 35 -4 23 3 39 0 39 -6
0 -6 9 -14 20 -17 27 -9 25 -23 -5 -37 -14 -6 -25 -17 -25 -24 0 -7 -9 -18
-21 -24 -14 -8 -18 -17 -14 -28 4 -9 9 -28 11 -42 3 -19 2 -21 -5 -10 -18 26
-21 4 -8 -41 8 -24 24 -64 35 -89 12 -25 30 -79 41 -122 11 -42 31 -98 45
-126 14 -27 31 -79 37 -116 l12 -66 279 0 278 0 0 505 c0 278 -2 505 -5 505
-3 0 -8 -7 -11 -15z m-415 -167 c-1 -18 -2 -19 -6 -5 -2 9 -9 15 -14 12 -5 -4
-17 -1 -26 4 -15 9 -13 10 15 11 27 0 32 -3 31 -22z m-33 -43 c7 -19 14 -39
14 -45 0 -14 -63 -13 -78 2 -7 7 -12 9 -12 4 0 -4 7 -14 15 -22 21 -21 19 -33
-5 -27 -11 3 -20 9 -20 14 0 5 -9 9 -20 9 -27 0 -27 37 0 45 11 3 23 17 26 31
5 19 13 24 36 24 24 0 32 -6 44 -35z m84 -109 c0 -2 -7 -6 -15 -10 -8 -3 -15
-1 -15 4 0 6 7 10 15 10 8 0 15 -2 15 -4z"/>
<path d="M345 983 c-11 -2 -27 -7 -35 -10 -8 -3 -23 -5 -33 -4 -11 2 -21 -5
-24 -17 -3 -11 -16 -23 -29 -26 -13 -4 -24 -13 -24 -22 0 -8 -8 -18 -17 -21
-10 -4 -22 -13 -26 -20 -7 -11 -13 -10 -34 7 -29 23 -49 26 -56 8 -3 -7 -6 -3
-6 10 -1 14 -7 22 -18 22 -13 0 -14 3 -6 8 9 6 7 12 -7 25 -11 9 -22 17 -25
17 -3 0 -5 -177 -5 -394 l0 -395 28 -3 c32 -4 27 -23 -6 -23 -21 1 -22 -3 -22
-72 l0 -73 293 0 c235 1 296 3 311 15 10 7 15 18 12 23 -3 6 -2 12 3 14 4 1
11 23 15 48 l6 45 -35 1 c-20 0 -49 10 -67 24 -21 15 -33 19 -36 12 -2 -7 -10
-12 -18 -12 -9 0 -12 -4 -9 -10 3 -5 -3 -10 -14 -10 -12 0 -21 -4 -21 -10 0
-18 -38 -10 -45 9 -7 23 9 67 27 73 7 3 28 1 46 -3 36 -8 52 8 52 53 0 13 3
18 8 12 4 -6 33 -19 65 -29 39 -12 64 -27 77 -45 30 -42 65 -47 94 -13 25 29
25 56 0 46 -8 -3 -14 -2 -13 3 3 21 -2 34 -13 34 -7 0 -20 5 -28 10 -13 8 -12
11 5 24 25 18 15 29 -25 28 -18 0 -33 5 -37 14 -3 9 -13 12 -28 8 -16 -4 -27
0 -35 13 -11 17 -11 17 -6 0 5 -15 2 -17 -14 -12 -14 5 -20 2 -20 -10 0 -9
-13 -21 -30 -26 -17 -6 -30 -15 -30 -20 0 -5 -18 -9 -40 -9 -22 0 -40 4 -40 9
0 19 -32 20 -52 1 -17 -15 -24 -17 -30 -8 -6 10 -8 10 -8 1 0 -26 -19 -12 -31
22 -7 19 -18 35 -25 35 -16 0 -23 21 -17 53 5 25 3 27 -25 27 -37 0 -49 15
-28 35 8 9 13 21 10 29 -3 7 11 29 30 50 25 28 44 39 75 43 23 3 41 10 41 14
0 5 9 9 19 9 11 0 26 7 34 14 19 20 79 2 93 -27 14 -31 29 -31 64 2 31 28 31
30 13 40 -14 7 -23 7 -30 0 -8 -8 -13 -7 -17 0 -9 14 1 31 20 31 8 0 14 7 14
15 0 9 6 18 14 21 17 6 10 35 -8 33 -27 -3 -38 2 -33 15 3 8 0 19 -7 25 -10 8
-19 6 -36 -9 -28 -24 -53 -26 -70 -5 -11 13 -10 21 1 42 7 14 20 28 29 30 61
19 70 26 70 53 0 16 6 30 13 33 20 7 -7 42 -34 43 -13 1 -49 3 -79 7 -30 3
-64 3 -75 0z m155 -713 c0 -5 -5 -10 -11 -10 -5 0 -7 5 -4 10 3 6 8 10 11 10
2 0 4 -4 4 -10z m-362 -162 c-3 -7 -11 -13 -18 -13 -7 0 -15 6 -17 13 -3 7 4
12 17 12 13 0 20 -5 18 -12z"/>
<path d="M932 950 c0 -14 2 -19 5 -12 2 6 2 18 0 25 -3 6 -5 1 -5 -13z"/>
<path d="M320 472 c0 -15 51 -25 63 -13 8 8 5 11 -10 11 -12 0 -28 3 -37 6 -9
3 -16 2 -16 -4z"/>
<path d="M380 430 c0 -5 5 -10 10 -10 6 0 10 5 10 10 0 6 -4 10 -10 10 -5 0
-10 -4 -10 -10z"/>
<path d="M2486 135 c-3 -8 -1 -15 4 -15 6 0 10 7 10 15 0 8 -2 15 -4 15 -2 0
-6 -7 -10 -15z"/>
<path d="M3684 19 c-16 -18 -16 -19 13 -19 35 0 52 25 23 33 -11 3 -26 -3 -36
-14z"/>
</g>
</svg>
